# xmcd
#
# Track frame offsets: 
#        150
#        13073
#        29429
#        39979
#        57826
#        71734
#        87132
#        103091
#        117045
#        138501
#        148092
#        161947
#
# Disc length: 2406 seconds
#
# Revision: 0
# Processed by: cddbd v1.5.2PL0 Copyright (c) Steve Scherf et al.
# Submitted via: ExactAudioCopyFreeDBPlugin 1.0
#
DISCID=a709640c
DTITLE=Saddle River String Band - Saddle River String Band
DYEAR=2007
DGENRE=Country
TTITLE0=Outlaw Blues
TTITLE1=Louis Collins
TTITLE2=Nashville Junky
TTITLE3=Swagger and Sway
TTITLE4=We Shall Rise
TTITLE5=Don't Sell It
TTITLE6=County Farm
TTITLE7=Grenadine
TTITLE8=I Don't Think You Love Me
TTITLE9=So Long Blues
TTITLE10=Some of These Days
TTITLE11=Bye Bye PEI
EXTD=
EXTT0=
EXTT1=
EXTT2=
EXTT3=
EXTT4=
EXTT5=
EXTT6=
EXTT7=
EXTT8=
EXTT9=
EXTT10=
EXTT11=
PLAYORDER=
